# xmcd
#
# Track frame offsets:
# 150
# 14427
# 32993
# 52936
# 68014
# 88496
# 102534
# 123031
# 129580
# 146221
# 160932
#
# Disc length: 2407 seconds
#
# Revision: 1
# Processed by: cddbd v1.5.2PL0 Copyright (c) Steve Scherf et al.
# Submitted via: CedeCatalogueitor 2.6.0.6 http://personales.ya.com/cdcatalogueitor
#
DISCID=9b09650b
DTITLE=PAL - Error De Fábrica
DYEAR=1900
DGENRE=
TTITLE0=La Ultima Letra Del Alfabeto
TTITLE1=Siempre Vuelven Los Cataros
TTITLE2=Presencia Nomada
TTITLE3=Son 
TTITLE4=Libre Mercado
TTITLE5=Hallazgos Del Ultimo Hombre
TTITLE6=Campieon
TTITLE7=Arde El Libro De Instrucciones
TTITLE8=No Los Quijero Conocer
TTITLE9=La Republica Invisible
TTITLE10=Intertoto
EXTD=
EXTT0=
EXTT1=
EXTT2=
EXTT3=
EXTT4=
EXTT5=
EXTT6=
EXTT7=
EXTT8=
EXTT9=
EXTT10=
PLAYORDER=
